# File created by Blade
# Date/Time:  Wed Jan 21 19:03:17 2015
#---------------------------------------------------------
:version 1.10
:name HOM
:units
  mass 1.0
  length 1.000000
  angle deg
:documentation
     Acclaim Skeleton File
:root
   axis xyz
   order TX TY TZ RX RY RZ
   position 0.000000 0.000000 0.000000
   orientation 0 0 0
:bonedata
   begin
      id 1
      name RightUpLeg_dum
      direction -1.000000 0.000000 0.000000
      length 3.693983
      axis 0.0 0.0 0.0 xyz
   end
   begin
      id 2
      name LeftUpLeg_dum
      direction 1.000000 0.000000 0.000000
      length 3.693983
      axis 0.0 0.0 0.0 xyz
   end
   begin
      id 3
      name Spine_dum
      direction 0.000000 1.000000 0.000000
      length 2.392956
      axis 0.0 0.0 0.0 xyz
   end
   begin
      id 4
      name RightUpLeg
      direction 0.000000 -1.000000 0.000000
      length 15.795667
      axis 0.0 0.0 0.0 xyz
      dof rx ry rz
   end
   begin
      id 5
      name RightLeg
      direction 0.000000 -1.000000 0.000000
      length 14.766989
      axis 0.0 0.0 0.0 xyz
      dof rx ry rz
   end
   begin
      id 6
      name RightFoot
      direction 0.000000 -0.258819 0.965926
      length 4.962790
      axis 15.0 0.0 0.0 xyz
      dof rx ry rz
   end
   begin
      id 7
      name RightToeBase
      direction 0.000000 0.000000 1.000000
      length 2.952750
      axis 0.0 0.0 0.0 xyz
      dof rx ry rz
   end
   begin
      id 8
      name LeftUpLeg
      direction 0.000000 -1.000000 0.000000
      length 15.795667
      axis 0.0 0.0 0.0 xyz
      dof rx ry rz
   end
   begin
      id 9
      name LeftLeg
      direction 0.000000 -1.000000 0.000000
      length 14.766989
      axis 0.0 0.0 0.0 xyz
      dof rx ry rz
   end
   begin
      id 10
      name LeftFoot
      direction 0.000000 -0.258819 0.965926
      length 4.962790
      axis 15.0 0.0 0.0 xyz
      dof rx ry rz
   end
   begin
      id 11
      name LeftToeBase
      direction 0.000000 0.000000 1.000000
      length 2.952750
      axis 0.0 0.0 0.0 xyz
      dof rx ry rz
   end
   begin
      id 12
      name Spine
      direction 0.000000 1.000000 0.000000
      length 0.000000
      axis 0.0 0.0 0.0 xyz
      dof rx ry rz
   end
   begin
      id 13
      name Spine_dum1
      direction 0.000000 1.000000 0.000000
      length 13.207411
      axis 0.0 0.0 0.0 xyz
   end
   begin
      id 14
      name Spine_dum2
      direction 0.000000 1.000000 0.000000
      length 13.207411
      axis 0.0 0.0 0.0 xyz
   end
   begin
      id 15
      name Spine_dum3
      direction 0.000000 1.000000 0.000000
      length 19.250100
      axis 0.0 0.0 0.0 xyz
   end
   begin
      id 16
      name RightShoulder
      direction -1.000000 0.000000 0.000000
      length 8.140465
      axis 0.0 0.0 90.0 xyz
      dof rx ry rz
   end
   begin
      id 17
      name RightArm
      direction -1.000000 0.000000 0.000000
      length 10.649840
      axis 0.0 0.0 90.0 xyz
      dof rx ry rz
   end
   begin
      id 18
      name RightForeArm
      direction -1.000000 0.000000 0.000000
      length 8.304624
      axis 0.0 0.0 90.0 xyz
      dof ry rz rx
   end
   begin
      id 19
      name RightHand
      direction -1.000000 0.000000 0.000000
      length 0.000000
      axis 0.0 0.0 90.0 xyz
      dof rx ry rz
   end
   begin
      id 20
      name RightHand_dum1
      direction -1.000000 0.000000 0.000000
      length 3.937000
      axis 0.0 0.0 90.0 xyz
   end
   begin
      id 21
      name RightHand_dum2
      direction 0.000000 0.000000 0.000000
      length 0.000000
      axis 0.0 0.0 90.0 xyz
   end
   begin
      id 22
      name RightHandThumb1
      direction 0.000000 0.000000 1.000000
      length 3.937000
      axis 0.0 0.0 90.0 xyz
      dof rx rz ry
   end
   begin
      id 23
      name LeftShoulder
      direction 1.000000 0.000000 0.000000
      length 8.140465
      axis 0.0 0.0 -90.0 xyz
      dof rx ry rz
   end
   begin
      id 24
      name LeftArm
      direction 1.000000 0.000000 0.000000
      length 10.649840
      axis 0.0 0.0 -90.0 xyz
      dof rx ry rz
   end
   begin
      id 25
      name LeftForeArm
      direction 1.000000 0.000000 0.000000
      length 8.304624
      axis 0.0 0.0 -90.0 xyz
      dof ry rz rx
   end
   begin
      id 26
      name LeftHand
      direction 1.000000 0.000000 0.000000
      length 0.000000
      axis 0.0 0.0 -90.0 xyz
      dof rx ry rz
   end
   begin
      id 27
      name LeftHand_dum1
      direction 1.000000 0.000000 0.000000
      length 3.937000
      axis 0.0 0.0 -90.0 xyz
   end
   begin
      id 28
      name LeftHand_dum2
      direction 0.000000 0.000000 0.000000
      length 0.000000
      axis 0.0 0.0 -90.0 xyz
   end
   begin
      id 29
      name LeftHandThumb1
      direction 0.000000 0.000000 1.000000
      length 3.937000
      axis 0.0 0.0 -90.0 xyz
      dof rx rz ry
   end
   begin
      id 30
      name Head
      direction 0.000000 1.000000 0.000000
      length 4.527550
      axis 0.0 0.0 0.0 xyz
      dof rx ry rz
   end
:hierarchy
   begin
      root RightUpLeg_dum LeftUpLeg_dum Spine_dum
      RightUpLeg_dum RightUpLeg
      LeftUpLeg_dum LeftUpLeg
      Spine_dum Spine
      RightUpLeg RightLeg
      RightLeg RightFoot
      RightFoot RightToeBase
      LeftUpLeg LeftLeg
      LeftLeg LeftFoot
      LeftFoot LeftToeBase
      Spine Spine_dum1 Spine_dum2 Spine_dum3
      Spine_dum1 RightShoulder
      Spine_dum2 LeftShoulder
      Spine_dum3 Head
      RightShoulder RightArm
      RightArm RightForeArm
      RightForeArm RightHand
      RightHand RightHand_dum1 RightHand_dum2
      RightHand_dum2 RightHandThumb1
      LeftShoulder LeftArm
      LeftArm LeftForeArm
      LeftForeArm LeftHand
      LeftHand LeftHand_dum1 LeftHand_dum2
      LeftHand_dum2 LeftHandThumb1
   end

# File created by Blade
# Date/Time:  Wed Jan 21 19:03:07 2015
# Frame Rate: 120.000 fps
#------------------------------------------------------
:FULLY-SPECIFIED
:DEGREES
846
root -4.675161 29.519791 -6.769613 119.051873 -33.631278 3.772272
RightUpLeg -131.402507 -17.324386 16.665178
RightLeg -11.981479 -0.000000 0.000000
RightFoot 8.790089 2.860689 37.861096
RightToeBase 25.341810 -0.000000 -0.000000
LeftUpLeg -102.078976 6.739549 -31.640716
LeftLeg -6.582556 -0.000000 0.000000
LeftFoot -6.750372 5.756705 -20.638299
LeftToeBase 5.471632 -0.000000 -0.000000
Spine 28.763499 -27.015862 21.418439
RightShoulder 12.878483 -0.365636 -43.835260
RightArm 80.521711 19.006202 90.673990
RightForeArm 76.137106 -0.000000 108.899011
RightHand 13.021020 -0.000000 -6.611822
RightHandThumb1 -24.326973 -0.000000 -32.862282
LeftShoulder 24.183055 14.677867 27.722073
LeftArm 108.242954 -17.961509 -92.963861
LeftForeArm -31.557926 -0.000000 108.625408
LeftHand -27.270344 -0.000000 21.250901
LeftHandThumb1 -26.253704 0.000000 33.147579
Head 29.910877 5.575779 -37.987726
847
root -4.682178 29.517801 -6.766219 119.033801 -33.630170 3.752687
RightUpLeg -131.365959 -17.268489 16.693148
RightLeg -12.000653 -0.000000 0.000000
RightFoot 8.821292 2.906244 37.841755
RightToeBase 25.368689 -0.000000 -0.000000
LeftUpLeg -102.046653 6.778507 -31.652564
LeftLeg -6.599346 -0.000000 0.000000
LeftFoot -6.721021 5.735757 -20.737241
LeftToeBase 5.392609 -0.000000 -0.000000
Spine 28.816264 -27.011770 21.413462
RightShoulder 12.888341 -0.273797 -43.884594
RightArm 80.398597 19.019605 90.660636
RightForeArm 76.090702 0.000000 108.961813
RightHand 13.038325 -0.000000 -6.616762
RightHandThumb1 -24.326973 -0.000000 -32.862282
LeftShoulder 24.129860 14.695874 27.698638
LeftArm 108.245086 -17.953429 -92.949296
LeftForeArm -31.518731 0.000000 108.626025
LeftHand -27.282871 -0.000000 21.140567
LeftHandThumb1 -26.253704 0.000000 33.147579
Head 29.905047 5.563275 -38.147498
848
root -4.689483 29.515947 -6.763163 119.024090 -33.628528 3.732563
RightUpLeg -131.333409 -17.214240 16.713119
RightLeg -12.021767 -0.000000 0.000000
RightFoot 8.869764 2.946546 37.735753
RightToeBase 25.295909 -0.000000 -0.000000
LeftUpLeg -102.017815 6.816188 -31.658103
LeftLeg -6.622974 -0.000000 0.000000
LeftFoot -6.724869 5.766022 -20.668862
LeftToeBase 5.458563 -0.000000 -0.000000
Spine 28.861215 -26.994768 21.407907
RightShoulder 12.889550 -0.203062 -43.907445
RightArm 80.298820 19.037853 90.622428
RightForeArm 76.057003 -0.000000 109.019460
RightHand 13.013500 -0.000000 -6.693059
RightHandThumb1 -24.326973 -0.000000 -32.862282
LeftShoulder 24.081603 14.677423 27.689279
LeftArm 108.187249 -17.928643 -92.952548
LeftForeArm -31.535483 0.000000 108.662070
LeftHand -27.260884 -0.000000 21.087425
LeftHandThumb1 -26.253704 0.000000 33.147579
Head 29.915778 5.554304 -38.244807
849
root -4.696569 29.513973 -6.760378 119.022445 -33.623510 3.701369
RightUpLeg -131.290993 -17.164070 16.721529
RightLeg -12.053922 -0.000000 0.000000
RightFoot 8.918841 2.938639 37.792702
RightToeBase 25.278134 -0.000000 -0.000000
LeftUpLeg -101.993062 6.861165 -31.657335
LeftLeg -6.649854 -0.000000 0.000000
LeftFoot -6.732710 5.781903 -20.683837
LeftToeBase 5.516429 -0.000000 -0.000000
Spine 28.896441 -26.970169 21.398533
RightShoulder 12.897040 -0.146939 -43.926566
RightArm 80.222259 19.051142 90.604537
RightForeArm 76.190885 -0.000000 109.097291
RightHand 12.923426 -0.000000 -6.884585
RightHandThumb1 -24.326973 -0.000000 -32.862282
LeftShoulder 24.052118 14.730429 27.684377
LeftArm 108.207007 -17.917060 -92.940058
LeftForeArm -31.445756 -0.000000 108.687009
LeftHand -27.335988 -0.000000 21.099576
LeftHandThumb1 -26.253704 0.000000 33.147579
Head 29.970275 5.564597 -38.333710
850
root -4.704313 29.511759 -6.757743 119.015670 -33.615327 3.673323
RightUpLeg -131.260762 -17.101899 16.745196
RightLeg -12.063042 -0.000000 0.000000
RightFoot 9.001670 2.989989 37.907214
RightToeBase 25.165400 -0.000000 -0.000000
LeftUpLeg -101.962871 6.913927 -31.647919
LeftLeg -6.682660 -0.000000 0.000000
LeftFoot -6.716191 5.793617 -20.696720
LeftToeBase 5.494908 -0.000000 -0.000000
Spine 28.937813 -26.945998 21.392259
RightShoulder 12.890435 -0.087617 -43.930885
RightArm 80.153197 19.039775 90.534973
RightForeArm 76.140035 0.000000 109.090080
RightHand 12.859337 0.000000 -7.075662
RightHandThumb1 -24.326973 -0.000000 -32.862282
LeftShoulder 24.007298 14.735627 27.669151
LeftArm 108.170933 -17.904992 -92.927153
LeftForeArm -31.499981 0.000000 108.694579
LeftHand -27.269978 -0.000000 21.101217
LeftHandThumb1 -26.253704 0.000000 33.147579
Head 30.009696 5.586582 -38.397600
851
root -4.709214 29.509122 -6.754848 119.016955 -33.610832 3.647295
RightUpLeg -131.227812 -17.058072 16.757269
RightLeg -12.091169 -0.000000 0.000000
RightFoot 8.983323 2.972148 37.854233
RightToeBase 25.331237 -0.000000 -0.000000
LeftUpLeg -101.943855 6.951207 -31.640338
LeftLeg -6.704375 -0.000000 0.000000
LeftFoot -6.705634 5.794668 -20.799891
LeftToeBase 5.413289 -0.000000 -0.000000
Spine 28.954447 -26.930509 21.394297
RightShoulder 12.901948 -0.033028 -43.969811
RightArm 80.060072 19.032806 90.517645
RightForeArm 76.117555 -0.000000 109.130542
RightHand 12.930796 -0.000000 -7.110091
RightHandThumb1 -24.326973 -0.000000 -32.862282
LeftShoulder 23.967297 14.766865 27.659971
LeftArm 108.152441 -17.892062 -92.927539
LeftForeArm -31.463390 -0.000000 108.729163
LeftHand -27.369211 -0.000000 21.100731
LeftHandThumb1 -26.253704 0.000000 33.147579
Head 30.058685 5.595025 -38.475486
852
root -4.716083 29.507239 -6.752298 119.019828 -33.591737 3.618636
RightUpLeg -131.187623 -17.015223 16.761894
RightLeg -12.113612 -0.000000 0.000000
RightFoot 9.051293 2.970399 37.910536
RightToeBase 25.130321 -0.000000 -0.000000
LeftUpLeg -101.932827 7.004701 -31.605579
LeftLeg -6.717325 -0.000000 0.000000
LeftFoot -6.742292 5.844575 -20.753901
LeftToeBase 5.518069 -0.000000 -0.000000
Spine 28.975674 -26.902706 21.400722
RightShoulder 12.916680 0.021145 -43.985037
RightArm 79.965241 19.025396 90.488228
RightForeArm 76.119174 0.000000 109.151370
RightHand 12.950102 0.000000 -7.091063
RightHandThumb1 -24.326973 -0.000000 -32.862282
LeftShoulder 23.944448 14.826537 27.657593
LeftArm 108.192390 -17.910689 -92.922957
LeftForeArm -31.457673 -0.000000 108.717295
LeftHand -27.489701 0.000000 20.991971
LeftHandThumb1 -26.253704 0.000000 33.147579
Head 30.125542 5.620497 -38.510502
